<svg width="26" height="14" viewBox="0 0 26 14" fill="none" xmlns="http://www.w3.org/2000/svg">
<path d="M11.9181 10.4639L11.2055 10.2299L11.2055 10.2299L11.9181 10.4639ZM13.0633 10.2678L12.5251 10.7901L12.5251 10.7901L13.0633 10.2678ZM11.9694 3.6974L12.6867 3.47849L12.6867 3.47849L11.9694 3.6974ZM13.111 3.91443L12.5844 3.38041L12.5844 3.38041L13.111 3.91443ZM12.6306 10.698C12.6002 10.7906 12.5446 10.8351 12.528 10.8462C12.5137 10.8557 12.5188 10.8486 12.5471 10.8442C12.5744 10.8399 12.5958 10.8425 12.6026 10.8441C12.6112 10.8462 12.5731 10.8396 12.5251 10.7901L13.6016 9.74555C13.2251 9.35757 12.6868 9.30356 12.3133 9.36251C11.9483 9.42012 11.397 9.64691 11.2055 10.2299L12.6306 10.698ZM9.97275 13.4545C10.6683 13.4545 11.2333 13.067 11.6466 12.5807C12.0613 12.0925 12.3885 11.4351 12.6306 10.698L11.2055 10.2299C11.0003 10.8549 10.7513 11.3178 10.5035 11.6094C10.2541 11.9029 10.0702 11.9545 9.97275 11.9545V13.4545ZM6.77449 6.99972C6.77449 8.65182 7.06042 10.1831 7.55236 11.3294C7.79777 11.9012 8.10925 12.4119 8.49332 12.7904C8.88064 13.1721 9.38146 13.4545 9.97275 13.4545V11.9545C9.88798 11.9545 9.74473 11.9177 9.54624 11.7221C9.3445 11.5232 9.12843 11.1984 8.93079 10.7379C8.53663 9.81941 8.27449 8.49831 8.27449 6.99972H6.77449ZM9.97275 0.544918C9.38146 0.544918 8.88064 0.827326 8.49332 1.20906C8.10925 1.58759 7.79777 2.09821 7.55236 2.67004C7.06042 3.81633 6.77449 5.34763 6.77449 6.99972H8.27449C8.27449 5.50114 8.53663 4.18004 8.93079 3.2616C9.12843 2.80106 9.3445 2.47623 9.54624 2.2774C9.74473 2.08178 9.88798 2.04492 9.97275 2.04492V0.544918ZM12.6867 3.47849C12.4476 2.69513 12.1175 1.99651 11.6955 1.47767C11.2767 0.962789 10.6957 0.544918 9.97275 0.544918V2.04492C10.0737 2.04492 10.2692 2.1013 10.5318 2.42416C10.7912 2.74306 11.0474 3.24569 11.252 3.91632L12.6867 3.47849ZM12.5844 3.38041C12.6328 3.33262 12.6701 3.32715 12.6607 3.32925C12.6531 3.33094 12.6311 3.33309 12.6039 3.3283C12.5755 3.32331 12.5709 3.31618 12.5856 3.32638C12.6026 3.33822 12.658 3.38446 12.6867 3.47849L11.252 3.91632C11.4317 4.50522 11.9807 4.74175 12.3442 4.80565C12.7167 4.87113 13.2543 4.82645 13.6376 4.44844L12.5844 3.38041ZM14.7214 2.4516C13.8892 2.4516 13.1525 2.82011 12.5844 3.38041L13.6376 4.44844C13.9802 4.11059 14.3546 3.9516 14.7214 3.9516V2.4516ZM18.2694 7.11515C18.2694 5.896 17.9173 4.761 17.31 3.91165C16.7038 3.0637 15.7988 2.4516 14.7214 2.4516V3.9516C15.1893 3.9516 15.6834 4.21557 16.0898 4.78405C16.4952 5.35112 16.7694 6.1729 16.7694 7.11515H18.2694ZM14.7214 11.7787C15.7988 11.7787 16.7038 11.1666 17.31 10.3186C17.9173 9.4693 18.2694 8.3343 18.2694 7.11515H16.7694C16.7694 8.0574 16.4952 8.87917 16.0898 9.44625C15.6834 10.0147 15.1893 10.2787 14.7214 10.2787V11.7787ZM12.5251 10.7901C13.101 11.3837 13.8594 11.7787 14.7214 11.7787V10.2787C14.3422 10.2787 13.9537 10.1085 13.6016 9.74555L12.5251 10.7901ZM3.24331 11.1502C4.12239 11.1502 4.71702 10.458 5.04719 9.79863C5.39966 9.09477 5.59599 8.17488 5.59599 7.19975H4.09599C4.09599 7.99218 3.93355 8.67251 3.70596 9.12698C3.45607 9.62599 3.24936 9.6502 3.24331 9.6502V11.1502ZM0.890625 7.19975C0.890625 8.17488 1.08696 9.09477 1.43943 9.79863C1.76959 10.458 2.36422 11.1502 3.24331 11.1502V9.6502C3.23725 9.6502 3.03054 9.62599 2.78065 9.12698C2.55307 8.67251 2.39062 7.99218 2.39062 7.19975H0.890625ZM3.24331 3.2493C2.36422 3.2493 1.76959 3.94154 1.43943 4.60087C1.08696 5.30473 0.890625 6.22462 0.890625 7.19975H2.39062C2.39062 6.40732 2.55307 5.72699 2.78065 5.27251C3.03054 4.7735 3.23725 4.7493 3.24331 4.7493V3.2493ZM5.59599 7.19975C5.59599 6.22462 5.39966 5.30473 5.04719 4.60087C4.71702 3.94154 4.12239 3.2493 3.24331 3.2493V4.7493C3.24936 4.7493 3.45607 4.7735 3.70596 5.27251C3.93355 5.72699 4.09599 6.40732 4.09599 7.19975H5.59599ZM23.6074 7.13515C23.6074 8.36344 23.3853 9.43942 23.0571 10.1802C22.8925 10.5516 22.716 10.8056 22.5579 10.9565C22.4036 11.1038 22.3038 11.1212 22.2589 11.1212V12.6212C22.7935 12.6212 23.2458 12.3736 23.5936 12.0416C23.9376 11.7132 24.2133 11.2736 24.4285 10.7879C24.8598 9.81459 25.1074 8.52253 25.1074 7.13515H23.6074ZM22.2589 3.14906C22.3038 3.14906 22.4036 3.16647 22.5579 3.31375C22.716 3.46468 22.8925 3.71867 23.0571 4.09006C23.3853 4.83088 23.6074 5.90686 23.6074 7.13515H25.1074C25.1074 5.74777 24.8598 4.45571 24.4285 3.4824C24.2133 2.99673 23.9376 2.55713 23.5936 2.22874C23.2458 1.8967 22.7935 1.64906 22.2589 1.64906V3.14906ZM20.9104 7.13515C20.9104 5.90686 21.1325 4.83088 21.4608 4.09006C21.6253 3.71867 21.8019 3.46468 21.96 3.31375C22.1142 3.16647 22.214 3.14906 22.2589 3.14906V1.64906C21.7244 1.64906 21.2721 1.8967 20.9242 2.22874C20.5802 2.55713 20.3046 2.99673 20.0894 3.4824C19.6581 4.45571 19.4104 5.74777 19.4104 7.13515H20.9104ZM22.2589 11.1212C22.214 11.1212 22.1142 11.1038 21.96 10.9565C21.8019 10.8056 21.6253 10.5516 21.4608 10.1802C21.1325 9.43942 20.9104 8.36344 20.9104 7.13515H19.4104C19.4104 8.52253 19.6581 9.81459 20.0894 10.7879C20.3046 11.2736 20.5802 11.7132 20.9242 12.0416C21.2721 12.3736 21.7244 12.6212 22.2589 12.6212V11.1212Z" fill="white"/>
</svg>
